<?xml version="1.0" standalone="no"?>
<!DOCTYPE svg PUBLIC "-//W3C//DTD SVG 20010904//EN"
 "http://www.w3.org/TR/2001/REC-SVG-20010904/DTD/svg10.dtd">
<svg version="1.0" xmlns="http://www.w3.org/2000/svg"
 width="1200.000000pt" height="1200.000000pt" viewBox="0 0 1200.000000 1200.000000"
 preserveAspectRatio="xMidYMid meet">

<g transform="translate(0.000000,1200.000000) scale(0.100000,-0.100000)"
fill="#000000" stroke="none">
<path d="M3770 8194 c-218 -49 -421 -235 -495 -454 -69 -204 -54 -483 35 -661
135 -267 421 -411 735 -370 147 20 282 76 370 153 l45 40 0 359 0 359 -307 -2
-308 -3 -3 -192 -2 -193 105 0 105 0 0 -61 0 -62 -94 5 c-86 5 -97 8 -148 41
-62 42 -91 87 -113 178 -48 205 21 407 160 465 94 39 205 15 308 -66 27 -22
54 -37 58 -33 44 47 229 278 229 286 0 18 -91 95 -160 137 -108 64 -176 82
-325 86 -89 2 -150 -1 -195 -12z m335 -64 c43 -11 104 -34 134 -51 65 -37 131
-87 131 -100 0 -9 -145 -185 -161 -195 -6 -3 -20 3 -32 14 -12 11 -47 33 -77
48 -48 25 -67 28 -140 28 -72 0 -94 -4 -142 -27 -159 -77 -234 -292 -184 -529
18 -81 36 -118 87 -173 60 -65 144 -98 249 -99 64 -1 93 3 118 17 l32 18 0
104 0 104 -107 3 -108 3 -3 128 -3 127 251 0 250 0 0 -308 c0 -351 8 -317 -95
-380 -186 -113 -469 -122 -672 -22 -195 96 -306 268 -334 519 -27 230 42 458
180 600 156 160 404 228 626 171z"/>
<path d="M4410 8186 c0 -4 226 -494 349 -754 l81 -173 0 -258 c0 -207 3 -261
14 -270 9 -8 77 -11 222 -9 l209 3 5 270 5 270 156 330 c86 182 177 374 202
428 25 53 49 97 52 97 4 0 6 -309 5 -687 -1 -379 -2 -694 -1 -700 1 -10 49
-13 206 -13 l205 0 0 245 c0 157 4 245 10 245 6 0 10 -6 10 -12 1 -7 29 -89
64 -183 l64 -170 134 -3 133 -3 55 148 c29 82 61 168 71 193 l18 45 3 -250 3
-250 210 0 210 0 3 670 c2 369 0 698 -3 733 l-7 62 -225 -2 -226 -3 -13 -35
c-50 -140 -143 -406 -178 -509 -23 -69 -45 -121 -48 -115 -4 5 -38 97 -77 204
-39 107 -92 254 -119 325 l-47 130 -456 3 -456 2 -88 -235 c-49 -130 -91 -238
-95 -240 -3 -2 -15 19 -25 48 -35 99 -144 387 -155 407 -10 19 -21 20 -245 20
-129 0 -235 -2 -235 -4z m459 -128 c14 -35 62 -164 107 -288 45 -123 86 -226
91 -227 5 -2 14 11 21 29 7 18 56 149 109 291 l97 257 169 0 c157 0 167 -1
158 -17 -5 -10 -95 -201 -200 -425 l-191 -408 0 -240 0 -240 -160 0 -160 0 0
233 0 233 -200 428 c-110 235 -200 430 -200 432 0 2 75 4 168 4 l167 0 24 -62z
m1358 -227 c57 -157 120 -337 139 -400 19 -63 37 -117 39 -120 9 -9 15 7 49
122 26 88 182 538 233 675 4 9 49 12 179 12 l174 0 0 -665 0 -665 -146 0 -146
0 5 333 c3 228 10 371 21 456 15 111 15 159 2 120 -3 -8 -39 -111 -80 -229
-41 -118 -104 -294 -140 -390 l-64 -175 -89 0 -88 0 -82 220 c-46 121 -111
303 -145 404 -34 101 -64 179 -65 174 -2 -5 4 -68 13 -139 10 -84 18 -243 21
-451 l5 -323 -146 0 -146 0 0 665 0 665 176 -2 176 -3 105 -284z"/>
<path d="M7926 8048 c-25 -79 -68 -217 -96 -308 -28 -91 -69 -219 -90 -285
-21 -66 -64 -203 -95 -305 -32 -102 -72 -234 -91 -294 -19 -60 -33 -115 -30
-122 4 -11 48 -14 218 -14 117 0 218 4 224 8 6 4 23 57 38 117 15 61 31 127
37 148 l10 38 152 -3 151 -3 36 -142 c19 -79 40 -146 45 -151 6 -5 111 -7 233
-4 222 4 224 4 219 26 -2 11 -44 147 -92 301 -107 346 -140 451 -257 830 l-93
300 -237 3 -237 2 -45 -142z m579 -265 c59 -192 122 -395 140 -453 102 -325
165 -528 165 -534 0 -4 -75 -5 -167 -4 l-166 3 -28 105 c-15 58 -32 124 -38
148 l-12 42 -199 0 -199 0 -9 -32 c-5 -18 -22 -86 -38 -150 l-28 -118 -164 0
c-136 0 -163 2 -159 14 3 8 32 101 65 207 54 176 89 289 237 764 26 83 60 191
75 241 15 50 30 97 34 103 5 7 67 11 195 11 l188 0 108 -347z"/>
<path d="M8136 7642 c-33 -136 -61 -259 -64 -274 l-4 -28 129 0 c71 0 132 2
135 5 5 6 -123 530 -132 538 -3 3 -32 -106 -64 -241z m93 -114 c13 -51 26 -99
28 -105 4 -10 -11 -13 -55 -13 l-59 0 25 105 c15 58 29 105 32 105 3 0 16 -42
29 -92z"/>
<path d="M3775 6255 c-7 -262 -8 -265 -29 -265 -12 0 -33 11 -48 25 -15 14
-33 24 -40 23 -7 -2 -17 7 -23 20 -5 12 -16 20 -22 17 -7 -2 -13 2 -13 10 0
21 -18 19 -23 -2 -4 -16 -5 -16 -6 1 -1 11 -6 16 -15 13 -10 -4 -13 -1 -10 7
5 14 -70 76 -93 76 -7 0 -13 5 -13 10 0 6 -7 10 -15 10 -18 0 -19 11 -2 29 6
8 7 11 1 8 -6 -4 -22 2 -34 13 -13 11 -27 20 -33 20 -5 0 -6 7 -3 16 3 9 2 12
-5 9 -16 -10 -50 35 -44 59 3 12 2 15 -1 9 -9 -21 -38 -14 -50 12 -9 18 -9 25
0 29 6 2 2 5 -10 5 -24 1 -44 -17 -44 -39 0 -19 123 -143 133 -134 4 4 7 1 7
-7 0 -19 154 -172 163 -163 4 4 7 1 7 -7 0 -15 82 -102 94 -100 3 1 6 -2 7 -6
2 -15 21 -33 30 -27 5 3 9 -1 9 -8 0 -8 29 -43 65 -78 l65 -64 2 -361 3 -360
219 0 218 0 -1 133 c-1 72 2 132 6 132 14 0 406 -397 395 -401 -7 -3 609
-1660 624 -1677 6 -8 234 83 234 93 0 6 -99 271 -219 590 -120 319 -218 581
-216 583 6 7 34 -11 29 -19 -3 -5 1 -7 8 -4 8 3 18 -7 26 -24 7 -17 23 -32 37
-35 14 -4 25 -11 25 -17 0 -6 18 -8 48 -5 33 4 41 3 27 -3 -11 -5 -15 -10 -8
-10 7 -1 10 -7 7 -14 -3 -10 4 -13 28 -11 18 2 24 1 14 -2 -44 -13 -47 -27
-17 -100 15 -38 36 -92 46 -120 l18 -52 55 19 c52 18 56 18 69 1 13 -16 14
-15 10 6 -3 14 0 22 8 22 10 0 13 -10 10 -30 -4 -35 5 -44 23 -24 11 12 10 14
-3 14 -8 0 -15 4 -15 9 0 12 52 0 68 -16 7 -7 9 -13 4 -13 -5 0 -12 -9 -15
-21 -5 -20 -5 -20 16 -2 12 10 26 23 30 28 5 6 6 2 3 -8 -3 -10 -6 -23 -6 -28
0 -5 -5 -8 -11 -7 -6 2 -13 -3 -14 -10 -2 -7 -1 -8 1 -3 3 5 14 7 24 4 11 -3
18 -9 15 -13 -3 -5 4 -11 15 -15 11 -4 18 -11 15 -16 -4 -5 5 -5 20 1 24 9 26
8 20 -11 -6 -19 -4 -21 14 -16 16 4 22 0 27 -19 3 -13 10 -21 15 -19 4 3 7 11
5 18 -1 7 -1 9 1 5 3 -5 14 -8 25 -8 17 0 19 -5 14 -27 -3 -16 -3 -22 0 -15 8
17 33 15 40 -3 4 -8 12 -15 20 -15 8 0 14 -5 14 -10 0 -7 7 -7 21 0 18 10 20
9 17 -11 -3 -19 2 -22 28 -23 16 0 36 4 43 8 10 7 11 4 3 -11 -9 -16 -8 -20 6
-20 9 0 20 5 25 11 5 8 10 6 16 -4 6 -8 22 -14 38 -15 17 0 27 -5 26 -12 -2
-7 0 -12 5 -11 4 1 17 -2 30 -6 20 -7 21 -10 10 -24 -12 -15 -11 -16 4 -4 10
8 28 11 45 8 26 -6 40 6 167 133 120 120 138 142 127 155 -7 9 -18 13 -23 10
-6 -4 -8 3 -4 17 3 13 3 19 0 13 -6 -13 -44 -7 -44 7 0 5 10 10 23 10 18 1 18
2 4 6 -10 3 -26 -2 -35 -11 -12 -10 -22 -12 -32 -5 -12 8 -11 9 5 7 14 -2 21
4 23 21 3 15 0 21 -7 16 -6 -3 -24 -4 -40 0 -28 6 -45 33 -41 64 1 7 -4 10
-10 6 -6 -4 -19 0 -28 7 -30 26 -42 30 -36 14 3 -9 1 -16 -5 -16 -15 0 -14 33
1 48 9 9 7 12 -10 12 -12 0 -23 -1 -24 -2 -2 -1 -13 4 -26 11 -17 9 -21 17
-16 36 4 15 2 25 -5 25 -6 0 -11 -7 -11 -16 0 -13 -3 -14 -15 -4 -8 7 -13 22
-11 33 2 18 54 41 335 148 183 70 335 130 338 133 9 9 -79 236 -91 236 -7 0
-193 -68 -415 -150 -221 -83 -407 -147 -413 -144 -6 4 -8 2 -5 -3 4 -6 -2 -13
-12 -16 -21 -5 -44 5 -41 19 1 4 -7 11 -17 15 -10 4 -12 8 -5 8 7 1 11 5 7 11
-3 5 -12 7 -20 3 -8 -3 -15 -1 -15 5 0 5 -17 22 -37 38 -20 15 -33 21 -28 13
8 -12 6 -12 -8 0 -9 7 -17 19 -17 26 0 7 -10 11 -25 9 -26 -2 -52 27 -40 46 3
6 1 10 -4 10 -6 0 -11 -4 -11 -10 0 -5 -7 -10 -17 -10 -9 0 -14 3 -10 6 3 4
-1 13 -9 21 -8 9 -13 22 -10 29 3 8 -1 14 -10 14 -9 0 -12 5 -8 13 4 6 -2 4
-14 -6 -11 -11 -26 -16 -32 -12 -8 5 -5 12 7 22 16 13 16 14 1 9 -10 -3 -20 0
-24 6 -4 7 -3 8 4 4 7 -4 12 -1 12 7 0 11 -14 22 -62 45 -5 2 -8 -3 -8 -11 0
-8 7 -14 16 -13 9 0 18 -7 19 -16 3 -15 0 -16 -18 -5 -22 12 -28 14 -57 16 -8
0 -21 10 -27 20 -11 17 -10 19 7 16 14 -3 17 1 13 12 -5 11 -3 14 6 9 9 -6 9
-3 -1 13 -8 13 -20 20 -30 17 -10 -2 -18 1 -18 7 0 7 -5 6 -11 -3 -8 -12 -10
-9 -6 13 3 21 2 25 -9 16 -7 -6 -11 -16 -8 -24 6 -14 -32 -32 -43 -21 -4 3 1
6 10 6 8 0 17 10 19 23 5 28 -57 91 -83 84 -10 -3 -20 0 -22 7 -2 6 -3 4 -3
-4 1 -9 11 -15 24 -15 14 0 29 -9 36 -23 7 -12 15 -19 19 -16 4 4 7 2 7 -5 0
-8 -6 -11 -16 -7 -9 3 -18 6 -20 6 -2 0 -4 7 -4 15 0 16 -16 21 -22 7 -1 -5
-18 -3 -35 5 -35 14 -43 40 -16 50 15 6 15 7 -3 14 -17 7 -16 8 6 8 14 1 48
-10 76 -23 28 -13 74 -29 103 -35 76 -16 276 -14 346 4 240 62 382 243 415
530 7 63 10 254 8 520 l-3 420 -215 0 -215 0 -5 -475 c-5 -460 -6 -476 -27
-522 -11 -25 -32 -53 -45 -61 -59 -37 -160 -27 -197 19 -42 54 -45 81 -50 569
l-6 470 -215 -4 c-118 -2 -217 -5 -219 -7 -1 -1 -3 -207 -3 -456 -1 -457 2
-508 39 -638 19 -69 63 -151 115 -212 21 -27 33 -48 26 -48 -18 1 -49 26 -41
33 3 4 -8 12 -25 18 -18 6 -32 15 -32 20 0 5 -7 9 -15 9 -8 0 -15 6 -15 13 0
8 -4 7 -10 -3 -9 -13 -14 -7 -11 13 0 4 -4 7 -10 7 -5 0 -7 5 -3 12 5 8 2 9
-10 5 -13 -5 -17 -3 -13 7 7 18 -35 40 -62 31 -13 -4 -21 -2 -21 5 0 6 5 8 12
4 7 -4 8 -3 4 4 -4 7 -14 12 -22 12 -8 0 -14 8 -14 18 0 13 -2 14 -9 4 -7 -11
-9 -11 -14 2 -4 10 -13 13 -23 9 -11 -4 -15 -3 -10 5 3 6 2 13 -4 17 -6 4 -7
12 -3 18 4 7 -1 6 -11 -2 -13 -11 -14 -16 -4 -22 9 -6 6 -9 -9 -9 -28 0 -29 8
-5 26 14 11 15 15 3 26 -8 7 -11 8 -8 2 4 -6 -3 -10 -16 -9 -12 1 -22 8 -22
15 0 13 -15 24 -48 34 -10 3 -15 10 -12 16 3 5 -1 10 -9 10 -9 0 -16 -6 -17
-12 0 -7 -5 -3 -11 10 -6 12 -18 22 -26 22 -9 0 -12 3 -9 7 4 3 -1 12 -11 19
-14 11 0 13 96 14 l112 0 -2 198 -3 197 -228 3 -228 2 3 82 3 82 260 0 260 1
3 198 2 197 -489 0 -489 0 -7 -265z m925 70 l0 -135 -267 0 -268 0 3 -150 3
-150 225 0 224 0 0 -130 0 -130 -225 0 -225 0 0 -255 0 -255 -22 -5 c-33 -8
-298 -1 -298 8 0 4 0 306 0 672 l0 665 425 0 425 0 0 -135z m552 -327 c3 -448
3 -454 26 -503 29 -63 48 -84 97 -106 84 -39 202 -16 258 50 57 69 60 95 65
574 l3 438 150 -3 150 -3 -1 -427 c0 -245 -5 -451 -11 -485 -33 -189 -114
-315 -244 -381 -85 -42 -154 -56 -280 -56 -104 0 -131 4 -199 28 -169 58 -253
154 -308 351 -21 76 -22 103 -26 528 l-3 447 160 0 160 0 3 -452z m-1717 122
c3 -5 1 -10 -4 -10 -6 0 -11 5 -11 10 0 6 2 10 4 10 3 0 8 -4 11 -10z m195
-224 c0 -2 -9 -6 -20 -9 -11 -3 -18 -1 -14 4 5 9 34 13 34 5z m35 -46 c-3 -5
-10 -10 -16 -10 -5 0 -9 5 -9 10 0 6 7 10 16 10 8 0 12 -4 9 -10z m695 -300
c0 -5 -4 -10 -9 -10 -6 0 -13 5 -16 10 -3 6 1 10 9 10 9 0 16 -4 16 -10z m155
-100 c3 -5 1 -10 -4 -10 -6 0 -11 5 -11 10 0 6 2 10 4 10 3 0 8 -4 11 -10z
m-65 -20 c0 -5 -4 -10 -10 -10 -5 0 -10 5 -10 10 0 6 5 10 10 10 6 0 10 -4 10
-10z m-40 -20 c0 -5 -2 -10 -4 -10 -3 0 -8 5 -11 10 -3 6 -1 10 4 10 6 0 11
-4 11 -10z m90 -34 c0 -11 -19 -15 -25 -6 -3 5 1 10 9 10 9 0 16 -2 16 -4z
m218 -117 c-6 -16 -12 -28 -14 -26 -5 5 13 57 20 57 3 0 0 -14 -6 -31z m-28
-5 c0 -8 -4 -12 -10 -9 -5 3 -10 10 -10 16 0 5 5 9 10 9 6 0 10 -7 10 -16z
m60 -34 c0 -5 -4 -10 -10 -10 -5 0 -10 5 -10 10 0 6 5 10 10 10 6 0 10 -4 10
-10z m40 0 c0 -5 -4 -10 -10 -10 -5 0 -10 5 -10 10 0 6 5 10 10 10 6 0 10 -4
10 -10z m46 -45 c20 -19 5 -19 -20 0 -11 9 -14 15 -7 15 7 0 19 -7 27 -15z
m72 -35 c-7 -10 -14 -17 -17 -15 -4 4 18 35 25 35 2 0 -1 -9 -8 -20z m86 -9
c4 -5 -3 -7 -14 -4 -23 6 -26 13 -6 13 8 0 17 -4 20 -9z m-7 -27 c-3 -3 -12
-4 -19 -1 -8 3 -5 6 6 6 11 1 17 -2 13 -5z m-36 -21 c13 -16 12 -17 -3 -4 -17
13 -22 21 -14 21 2 0 10 -8 17 -17z m239 -163 c0 -5 -4 -10 -10 -10 -5 0 -10
5 -10 10 0 6 5 10 10 10 6 0 10 -4 10 -10z m220 -124 c0 -3 -4 -8 -10 -11 -5
-3 -10 -1 -10 4 0 6 5 11 10 11 6 0 10 -2 10 -4z m570 -466 c0 -17 -2 -19 -14
-8 -10 9 -11 15 -2 20 16 11 16 10 16 -12z m40 -34 c0 -3 -4 -8 -10 -11 -5 -3
-10 -1 -10 4 0 6 5 11 10 11 6 0 10 -2 10 -4z m-604 -163 c-10 -10 -19 5 -10
18 6 11 8 11 12 0 2 -7 1 -15 -2 -18z m338 -118 c3 -8 1 -15 -4 -15 -6 0 -10
7 -10 15 0 8 2 15 4 15 2 0 6 -7 10 -15z m-40 -83 c3 -5 -1 -9 -9 -9 -8 0 -12
4 -9 9 3 4 7 8 9 8 2 0 6 -4 9 -8z m230 -64 c-7 -11 -34 -10 -34 1 0 6 9 9 19
8 11 0 17 -5 15 -9z"/>
<path d="M6254 6509 c-8 -13 -14 -1215 -6 -1356 l5 -103 248 0 248 0 19 -52
c11 -29 62 -161 112 -293 50 -132 134 -352 186 -489 52 -138 95 -251 97 -252
3 -3 225 80 232 87 3 4 -48 150 -114 325 -66 176 -149 398 -184 494 l-65 175
60 3 c33 2 62 1 64 -1 6 -6 86 -211 186 -477 45 -118 85 -219 89 -224 10 -12
121 34 116 48 -2 6 -43 115 -90 241 -254 679 -237 628 -237 713 0 42 -4 82 -8
89 -4 6 -20 13 -36 15 -25 3 -31 11 -51 63 -12 33 -26 60 -31 60 -12 0 -114
-36 -114 -40 0 -1 7 -21 15 -44 l14 -42 -67 3 -67 3 -50 132 c-27 72 -53 134
-56 137 -3 4 -22 0 -42 -9 l-35 -15 -1 401 c-1 221 -4 405 -7 410 -8 13 -421
11 -430 -2z m378 -591 l3 -533 258 -3 258 -2 -3 -133 -3 -132 -415 0 -415 0
-3 668 -2 667 160 0 160 0 2 -532z"/>
<path d="M7333 6505 c-11 -8 -13 -130 -11 -730 l3 -720 53 -3 54 -3 22 -52
c13 -29 36 -87 51 -130 25 -70 31 -78 50 -73 40 10 95 36 95 45 0 5 -16 51
-35 101 -19 50 -35 96 -35 101 0 5 147 9 355 9 l355 0 -2 198 -3 197 -257 3
-258 2 0 530 0 529 -212 3 c-130 2 -216 -1 -225 -7z m377 -590 l0 -535 260 0
261 0 -3 -132 -3 -133 -417 -3 -418 -2 0 670 0 670 160 0 160 0 0 -535z"/>
<path d="M3195 6410 c3 -5 8 -10 11 -10 2 0 4 5 4 10 0 6 -5 10 -11 10 -5 0
-7 -4 -4 -10z"/>
<path d="M3570 6131 c0 -6 4 -13 10 -16 6 -3 7 1 4 9 -7 18 -14 21 -14 7z"/>
<path d="M4530 5509 c0 -5 5 -7 10 -4 6 3 10 8 10 11 0 2 -4 4 -10 4 -5 0 -10
-5 -10 -11z"/>
<path d="M4642 5460 c0 -14 2 -19 5 -12 2 6 2 18 0 25 -3 6 -5 1 -5 -13z"/>
<path d="M5364 4909 c-3 -6 -2 -15 3 -20 5 -5 9 -1 9 11 0 23 -2 24 -12 9z"/>
<path d="M5600 4735 c0 -7 30 -13 34 -7 3 4 -4 9 -15 9 -10 1 -19 0 -19 -2z"/>
<path d="M4519 4607 l-55 -22 224 -595 c124 -327 226 -597 227 -598 2 -2 30 6
63 18 l59 22 -139 366 c-76 202 -178 472 -226 600 -48 127 -89 232 -92 231 -3
0 -30 -10 -61 -22z"/>
<path d="M5205 4350 c3 -5 8 -10 11 -10 2 0 4 5 4 10 0 6 -5 10 -11 10 -5 0
-7 -4 -4 -10z"/>
<path d="M6280 4256 c0 -9 5 -16 10 -16 6 0 10 4 10 9 0 6 -4 13 -10 16 -5 3
-10 -1 -10 -9z"/>
<path d="M6300 4185 c0 -8 7 -15 15 -15 8 0 15 4 15 9 0 5 -7 11 -15 15 -9 3
-15 0 -15 -9z"/>
<path d="M4412 4156 c-38 -15 -51 -25 -46 -36 3 -8 42 -112 86 -230 44 -118
84 -219 88 -224 7 -7 94 18 112 33 9 8 -165 474 -178 477 -5 1 -33 -8 -62 -20z"/>
<path d="M6376 4162 c-3 -5 1 -9 9 -9 8 0 12 4 9 9 -3 4 -7 8 -9 8 -2 0 -6 -4
-9 -8z"/>
<path d="M6310 4156 c0 -2 7 -7 16 -10 8 -3 12 -2 9 4 -6 10 -25 14 -25 6z"/>
<path d="M6465 4060 c13 -15 22 -17 29 -10 12 12 -8 30 -33 30 -11 0 -10 -5 4
-20z"/>
<path d="M5743 3913 c4 -3 1 -13 -6 -22 -11 -14 -10 -14 5 -2 16 12 16 31 1
31 -4 0 -3 -3 0 -7z"/>
</g>
</svg>
