<?xml version="1.0" standalone="no"?>
<!DOCTYPE svg PUBLIC "-//W3C//DTD SVG 20010904//EN"
 "http://www.w3.org/TR/2001/REC-SVG-20010904/DTD/svg10.dtd">
<svg version="1.0" xmlns="http://www.w3.org/2000/svg"
 width="300.000000pt" height="300.000000pt" viewBox="0 0 300.000000 300.000000"
 preserveAspectRatio="xMidYMid meet">

<g transform="translate(0.000000,300.000000) scale(0.100000,-0.100000)"
fill="#000000" stroke="none">
<path d="M1164 2142 c-24 -23 -149 -129 -163 -139 -2 -1 3 -31 12 -65 15 -56
15 -73 3 -158 l-14 -95 36 -138 c26 -98 44 -147 63 -169 l26 -32 203 3 203 3
75 49 c41 27 81 49 89 49 8 0 52 -18 99 -41 96 -47 113 -46 162 4 l32 33 -41
90 c-22 49 -52 114 -66 144 -14 30 -38 82 -54 115 -15 33 -32 72 -38 88 -6 15
-14 27 -18 27 -25 0 -148 -31 -151 -37 -1 -4 -15 -30 -31 -58 l-28 -50 -88
-21 c-78 -18 -93 -25 -131 -64 -24 -24 -44 -38 -44 -30 0 7 -30 58 -66 113
-50 74 -67 109 -68 136 -1 34 1 36 28 33 21 -2 35 3 45 17 9 12 28 22 43 23
15 1 24 6 22 10 -3 4 0 8 6 8 6 0 8 5 5 11 -4 6 -1 10 6 8 49 -6 54 19 18 92
-27 54 -30 56 -75 63 -67 9 -67 9 -100 -22z m34 -23 c-10 -5 -15 -16 -12 -23
3 -8 1 -17 -5 -21 -20 -12 -11 -38 21 -65 19 -16 28 -31 24 -38 -10 -17 -27
-15 -20 2 8 22 -53 32 -75 12 -14 -13 -16 -26 -11 -78 6 -55 15 -76 70 -161
l62 -98 -6 -62 -6 -62 26 30 c15 17 50 56 78 88 l51 57 125 5 c69 2 126 4 128
4 2 1 -4 8 -13 17 -9 9 -14 22 -11 29 2 7 10 33 17 56 16 53 23 59 76 59 41 0
42 -1 56 -47 8 -27 40 -122 71 -212 31 -90 56 -170 56 -177 0 -25 -21 -15
-123 56 l-99 71 -66 -3 -65 -3 -17 -60 c-20 -71 -15 -69 -225 -79 -138 -7
-141 -7 -161 16 -12 13 -31 48 -42 78 -11 30 -31 81 -45 112 -26 58 -26 59
-13 165 11 91 11 115 0 153 -14 44 -14 45 14 70 99 89 148 128 152 123 3 -2
-3 -9 -12 -14z m144 -91 c-7 -7 -12 -8 -12 -2 0 6 3 14 7 17 3 4 9 5 12 2 2
-3 -1 -11 -7 -17z m-32 -2 c0 -3 -4 -8 -10 -11 -5 -3 -10 -1 -10 4 0 6 5 11
10 11 6 0 10 -2 10 -4z"/>
<path d="M542 1214 c-20 -14 -22 -24 -22 -99 0 -110 5 -115 116 -115 l84 0 0
65 0 65 -49 0 c-40 0 -50 -4 -54 -19 -3 -15 1 -21 16 -23 12 -2 23 -11 25 -20
3 -14 -4 -18 -31 -18 -39 0 -47 11 -47 70 0 50 19 64 75 58 44 -5 45 -5 45 23
l0 29 -68 0 c-45 0 -75 -5 -90 -16z"/>
<path d="M720 1220 c0 -6 18 -43 40 -84 22 -41 40 -87 40 -105 0 -28 3 -31 30
-31 26 0 30 4 30 27 0 14 20 63 44 109 25 45 42 85 39 88 -4 3 -19 6 -34 6
-23 0 -31 -8 -52 -52 l-25 -52 -26 52 c-23 45 -30 52 -56 52 -17 0 -30 -5 -30
-10z"/>
<path d="M967 1223 c-4 -3 -7 -55 -7 -115 l0 -108 29 0 c29 0 30 2 33 53 l3
52 20 -32 c26 -43 57 -43 84 0 l21 32 0 -52 c0 -52 0 -53 30 -53 l30 0 0 116
0 115 -32 -3 c-27 -2 -37 -11 -58 -50 -14 -26 -28 -50 -32 -53 -3 -4 -19 18
-34 49 -23 47 -31 56 -54 56 -15 0 -30 -3 -33 -7z"/>
<path d="M1401 1190 c-10 -22 -21 -37 -25 -33 -4 4 -4 0 -1 -9 3 -8 -5 -44
-19 -78 -14 -35 -26 -65 -26 -67 0 -2 16 -3 35 -3 24 0 37 6 45 20 7 14 21 20
44 20 25 0 35 -5 39 -20 4 -14 14 -20 34 -20 16 0 32 3 35 6 3 3 -5 33 -18 67
-13 33 -25 68 -26 76 -2 9 -5 18 -8 21 -3 3 -11 17 -17 33 -10 21 -19 27 -43
27 -26 0 -34 -6 -49 -40z m63 -76 c9 -23 8 -24 -13 -24 -14 0 -18 5 -14 20 6
24 19 26 27 4z"/>
<path d="M1690 1115 l0 -115 30 0 c28 0 30 2 30 40 l0 40 45 0 c41 0 45 2 45
24 0 22 -5 25 -42 28 -35 2 -43 7 -43 23 0 17 8 20 58 23 53 3 57 5 57 27 0
25 -1 25 -90 25 l-90 0 0 -115z"/>
<path d="M1890 1127 c0 -67 4 -107 12 -115 7 -7 42 -12 89 -12 99 0 103 4 107
132 l4 99 -34 -3 -33 -3 -3 -87 -3 -88 -34 0 c-39 0 -48 17 -45 83 5 89 3 97
-30 97 l-30 0 0 -103z"/>
<path d="M2134 1216 c-3 -8 -4 -58 -2 -112 l3 -99 88 -3 c87 -3 87 -3 87 22 0
23 -4 25 -52 28 l-53 3 -3 88 -3 87 -30 0 c-16 0 -32 -6 -35 -14z"/>
<path d="M2336 1222 c-3 -5 -3 -17 -1 -28 2 -10 4 -58 4 -106 l1 -88 85 0 c84
0 85 0 85 25 0 24 -3 25 -55 25 l-55 0 0 90 0 90 -29 0 c-17 0 -32 -4 -35 -8z"/>
<path d="M2373 895 c-7 -8 -13 -24 -12 -37 0 -13 3 -17 6 -10 4 10 9 9 24 -4
24 -22 34 -13 24 23 -4 15 -10 22 -12 16 -8 -21 -25 -14 -18 7 7 23 5 25 -12
5z"/>
<path d="M378 864 c-4 -31 -2 -34 22 -33 16 1 19 3 8 6 -18 5 -25 23 -9 23 18
0 19 28 1 33 -14 4 -19 -2 -22 -29z"/>
<path d="M630 890 c-7 -4 -10 -18 -8 -31 4 -31 59 -42 57 -12 0 10 -3 13 -6 6
-2 -7 -13 -13 -24 -13 -25 0 -25 30 1 37 11 3 20 9 20 12 0 10 -26 10 -40 1z"/>
<path d="M732 870 c0 -19 2 -27 5 -17 2 9 2 25 0 35 -3 9 -5 1 -5 -18z"/>
<path d="M1129 884 c-11 -13 -10 -18 6 -27 19 -10 19 -10 0 -18 -18 -8 -17 -8
4 -6 27 2 42 27 17 27 -19 0 -22 16 -4 22 8 3 9 6 1 11 -6 4 -17 0 -24 -9z"/>
<path d="M1284 886 c-26 -20 -9 -58 24 -54 21 2 28 9 30 29 4 31 -27 45 -54
25z m36 -10 c0 -2 3 -11 6 -20 4 -11 0 -14 -15 -13 -24 1 -30 37 -6 37 8 0 15
-2 15 -4z"/>
<path d="M1447 886 c-2 -5 -1 -21 1 -34 4 -18 10 -22 31 -20 20 2 27 9 29 31
2 15 0 28 -5 28 -37 6 -53 5 -56 -5z m53 -26 c0 -13 -7 -20 -20 -20 -13 0 -20
7 -20 20 0 13 7 20 20 20 13 0 20 -7 20 -20z"/>
<path d="M1560 865 c0 -30 3 -35 23 -34 16 1 18 2 5 6 -10 2 -18 9 -18 14 0 5
8 9 18 10 14 0 14 2 -3 9 -17 7 -17 9 -2 9 24 1 22 21 -3 21 -16 0 -20 -7 -20
-35z"/>
<path d="M1727 868 c8 -43 13 -48 13 -15 0 15 5 27 11 27 5 0 7 5 4 10 -3 6
-13 10 -20 10 -11 0 -13 -8 -8 -32z"/>
<path d="M1849 876 c-5 -34 -29 -48 -29 -17 0 11 -5 23 -11 26 -7 5 -9 -3 -7
-21 2 -21 9 -30 26 -32 25 -4 36 14 30 50 -4 21 -5 20 -9 -6z"/>
<path d="M2073 893 c-15 -5 -18 -33 -4 -33 13 0 33 28 24 33 -4 2 -14 2 -20 0z"/>
<path d="M2201 873 c-1 -41 -31 -47 -31 -7 0 14 -4 23 -9 20 -16 -10 0 -56 20
-56 23 0 32 19 26 52 -3 17 -5 15 -6 -9z"/>
<path d="M2474 883 c-17 -17 -15 -32 8 -46 23 -15 48 -1 48 27 0 29 -34 41
-56 19z m46 -23 c0 -13 -7 -20 -20 -20 -13 0 -20 7 -20 20 0 13 7 20 20 20 13
0 20 -7 20 -20z"/>
<path d="M2580 873 c0 -15 6 -23 18 -24 14 0 14 -2 -3 -9 -19 -8 -19 -9 3 -9
13 -1 22 5 22 14 0 8 -7 15 -15 15 -8 0 -15 5 -15 10 0 6 5 10 10 10 6 0 10 4
10 8 0 5 -7 9 -15 9 -9 0 -15 -10 -15 -24z"/>
<path d="M471 863 c-1 -30 2 -33 27 -32 22 1 23 2 5 6 -14 3 -23 13 -26 31 -4
24 -4 24 -6 -5z"/>
<path d="M791 858 c1 -18 3 -25 6 -15 4 15 7 16 20 6 12 -10 16 -10 24 2 7 11
9 10 10 -6 l0 -20 8 20 c13 33 2 49 -20 29 -17 -15 -19 -15 -25 0 -10 27 -24
18 -23 -16z"/>
<path d="M910 881 c0 -6 5 -13 11 -17 8 -4 7 -9 -2 -16 -10 -7 -9 -8 5 -4 10
4 25 1 33 -5 19 -17 24 -8 14 27 -6 18 -10 22 -10 10 -1 -18 -2 -18 -19 -3
-21 19 -32 22 -32 8z"/>
<path d="M1026 865 c-21 -32 -20 -34 7 -28 48 10 48 11 35 33 -16 26 -22 25
-42 -5z"/>
<path d="M1210 866 c0 -14 5 -26 10 -26 6 0 10 9 10 19 0 11 -4 23 -10 26 -6
4 -10 -5 -10 -19z"/>
<path d="M1910 875 c0 -9 8 -19 17 -22 15 -6 15 -7 -3 -14 -18 -7 -17 -8 3 -8
29 -1 40 19 18 31 -14 8 -15 12 -4 19 10 6 8 9 -8 9 -14 0 -23 -6 -23 -15z"/>
<path d="M2260 860 c0 -26 3 -30 28 -29 23 2 24 2 5 6 -27 5 -31 23 -5 23 14
0 14 2 3 9 -11 7 -10 10 5 14 13 3 11 5 -8 6 -25 1 -28 -3 -28 -29z"/>
<path d="M2085 851 c3 -5 -3 -12 -12 -14 -11 -3 -8 -5 10 -6 18 -1 27 4 27 14
0 8 -7 15 -16 15 -8 0 -13 -4 -9 -9z"/>
</g>
</svg>
